<?xml version="1.0" encoding="UTF-8"?>
<svg width="519px" height="519px" viewBox="0 0 519 519" version="1.1" xmlns="http://www.w3.org/2000/svg" xmlns:xlink="http://www.w3.org/1999/xlink">
    <title>Media keys for Spotify are disabled</title>
    <g id="Media-keys-for-Spotify-are-disabled" stroke="none" stroke-width="1" fill="none" fill-rule="evenodd">
        <path d="M395,91.239391 C282.065057,87.4852433 189.562302,129.127975 189.562302,129.127975 L189.49488,340.455486 C177.996086,335.892546 164.012798,334.810785 149.810388,338.261635 C119.190763,345.699161 99.1395094,371.35475 105.025435,395.574732 C110.911362,419.794714 140.502804,433.402657 171.119059,425.9685 C199.989088,418.955591 219.453772,395.743231 216.652394,372.817318 L216.652394,214.917327 C216.652394,214.917327 282.065057,192.055443 366.912064,186.323123 L366.912064,303.763242 C355.538001,299.40924 341.821029,298.421838 327.878193,301.808659 C297.258568,309.242815 277.207314,334.898404 283.09324,359.121756 C288.975795,383.341737 318.567238,396.94631 349.186864,389.512154 C375.922992,383.01822 394.59884,362.629896 394.989887,341.442888 L395,341.456368 L395,91.239391 L395,91.239391 Z" id="Path" stroke="#1DB954" stroke-width="2" fill-rule="nonzero"></path>
    </g>
</svg>